<svg xmlns="http://www.w3.org/2000/svg" width="520" height="460" viewBox="0 0 520 460">
  <g fill="none" stroke="#1f3f39" stroke-linecap="round" opacity="0.34">
    <path d="M438-20c-7 97-7 195 17 294" stroke-width="5"/>
    <path d="M470 2c-20 113-19 214 8 318" stroke-width="4"/>
    <path d="M401 42c34 46 66 93 95 139" stroke-width="3"/>
    <path d="M392 154c43 24 78 50 108 80" stroke-width="3"/>
    <path d="M365 250c42 9 84 24 127 48" stroke-width="3"/>
  </g>
  <g fill="#1f3f39" opacity="0.23">
    <path d="M358 43c58 3 92 14 120 49-52 2-89-11-120-49z"/>
    <path d="M338 88c67 10 104 30 130 75-60-4-102-26-130-75z"/>
    <path d="M326 157c58 5 97 22 131 61-58 1-99-15-131-61z"/>
    <path d="M330 227c62-2 107 7 151 38-58 11-102-1-151-38z"/>
    <path d="M390 286c48-1 85 8 118 34-47 8-84-2-118-34z"/>
  </g>
  <g fill="none" stroke="#1f3f39" stroke-opacity="0.16">
    <path d="M0 402c74-26 152-36 234-32 106 6 170 37 286 13"/>
    <path d="M24 432c84-22 158-24 242-13 76 10 148 14 238-9"/>
  </g>
</svg>
