<svg xmlns="http://www.w3.org/2000/svg" viewBox="0 0 128 128" role="img" aria-label="student portrait">
  <defs>
    <radialGradient id="paper" cx="48%" cy="34%" r="62%">
      <stop offset="0" stop-color="#fff8ea"/>
      <stop offset=".72" stop-color="#eadfc7"/>
      <stop offset="1" stop-color="#cdbf9d"/>
    </radialGradient>
    <linearGradient id="robe" x1="23" x2="105" y1="95" y2="112" gradientUnits="userSpaceOnUse">
      <stop offset="0" stop-color="#e9ddc7"/>
      <stop offset=".54" stop-color="#5f776c"/>
      <stop offset="1" stop-color="#213f39"/>
    </linearGradient>
    <filter id="soft-shadow" x="-20%" y="-20%" width="140%" height="140%">
      <feDropShadow dx="0" dy="4" stdDeviation="4" flood-color="#181815" flood-opacity=".18"/>
    </filter>
  </defs>
  <circle cx="64" cy="64" r="61" fill="url(#paper)"/>
  <path d="M18 101c15-21 27-29 46-29s34 8 47 29c-11 13-26 20-47 20s-36-7-46-20z" fill="url(#robe)" filter="url(#soft-shadow)"/>
  <path d="M45 82c5 7 12 10 19 10s14-3 19-10v22c-10 7-28 7-38 0z" fill="#e7c9ab"/>
  <path d="M36 50c2-20 13-31 30-31 16 0 27 11 28 31 3 2 5 6 4 11s-4 8-8 8c-4 15-13 24-26 24s-22-9-26-24c-4 0-7-3-8-8s1-9 6-11z" fill="#f0d6ba"/>
  <path d="M35 54c-3-16 0-28 11-36 9-7 24-9 35-2 12 7 17 20 14 38-7-12-17-20-30-23-12 2-22 9-30 23z" fill="#26231f"/>
  <path d="M36 53c7-13 17-20 30-22 13 3 23 10 30 22-3-18-13-30-30-33-18 3-27 15-30 33z" fill="#1b1a17"/>
  <path d="M48 18c5-10 15-12 23-8 6 3 8 8 6 14-8-5-18-6-29-6z" fill="#2c2924"/>
  <path d="M48 61c5-3 10-3 15 0" fill="none" stroke="#312f2a" stroke-width="2" stroke-linecap="round"/>
  <path d="M70 61c5-3 10-3 15 0" fill="none" stroke="#312f2a" stroke-width="2" stroke-linecap="round"/>
  <path d="M61 73c2 1 4 1 6 0" fill="none" stroke="#b98067" stroke-width="2" stroke-linecap="round"/>
  <path d="M55 80c6 4 13 4 19 0" fill="none" stroke="#915d4d" stroke-width="2" stroke-linecap="round"/>
  <path d="M32 103c18 7 42 8 64 0" fill="none" stroke="#fff8ea" stroke-width="4" stroke-opacity=".64"/>
  <path d="M49 93l15 12 15-12" fill="none" stroke="#f7ecdb" stroke-width="4" stroke-linecap="round" stroke-linejoin="round"/>
  <path d="M12 77c16-4 30-2 43 7M74 87c14-7 28-10 42-7" fill="none" stroke="#244d45" stroke-width="2" stroke-opacity=".18"/>
</svg>
